M48
; DRILL file {KiCad 6.0.6-3a73a75311~116~ubuntu22.04.1} date Sat 10 Sep 2022 11:22:14 AM +0530
; FORMAT={-:-/ absolute / metric / decimal}
; #@! TF.CreationDate,2022-09-10T11:22:14+05:30
; #@! TF.GenerationSoftware,Kicad,Pcbnew,6.0.6-3a73a75311~116~ubuntu22.04.1
; #@! TF.FileFunction,MixedPlating,1,2
FMAT,2
METRIC
; #@! TA.AperFunction,Plated,PTH,ViaDrill
T1C0.400
; #@! TA.AperFunction,Plated,PTH,ComponentDrill
T2C0.700
; #@! TA.AperFunction,Plated,PTH,ComponentDrill
T3C0.750
; #@! TA.AperFunction,Plated,PTH,ComponentDrill
T4C0.800
; #@! TA.AperFunction,Plated,PTH,ComponentDrill
T5C0.900
; #@! TA.AperFunction,Plated,PTH,ComponentDrill
T6C1.000
; #@! TA.AperFunction,Plated,PTH,ComponentDrill
T7C1.100
; #@! TA.AperFunction,Plated,PTH,ComponentDrill
T8C1.200
; #@! TA.AperFunction,Plated,PTH,ComponentDrill
T9C1.300
%
G90
G05
T1
X80.518Y-72.136
X81.788Y-74.422
X82.55Y-95.25
X82.55Y-106.934
X97.79Y-72.136
X97.79Y-84.328
X97.79Y-94.234
X100.076Y-84.074
X100.076Y-104.14
X101.6Y-74.422
X102.108Y-84.328
X102.108Y-102.362
X104.394Y-94.742
X104.394Y-113.538
X127.0Y-98.806
X140.462Y-98.806
T2
X59.69Y-127.254
X60.198Y-109.728
X60.96Y-146.812
X67.31Y-127.254
X67.818Y-109.728
X68.58Y-146.812
X130.556Y-80.174
X130.556Y-87.794
X130.556Y-134.276
X130.556Y-141.896
X130.81Y-106.082
X130.81Y-113.702
X134.366Y-141.642
X134.62Y-134.62
X134.874Y-81.026
X134.874Y-86.614
X135.128Y-106.68
X135.128Y-112.522
X141.986Y-141.642
X142.24Y-134.62
X142.494Y-81.026
X142.494Y-86.614
X142.748Y-106.68
X142.748Y-112.522
X148.59Y-147.738
X149.098Y-94.488
X149.098Y-119.544
X156.21Y-147.738
X156.718Y-94.488
X156.718Y-119.544
T3
X60.198Y-114.718
X60.198Y-115.988
X60.198Y-117.258
X60.304Y-134.53
X60.304Y-135.8
X60.304Y-137.07
X61.214Y-154.088
X61.214Y-155.358
X61.214Y-156.628
T4
X70.104Y-98.642
X70.104Y-103.542
X77.724Y-94.314
X77.724Y-99.314
X77.724Y-103.418
X77.724Y-108.418
X80.304Y-142.24
X85.304Y-142.24
X88.148Y-79.422
X88.148Y-81.962
X88.148Y-84.502
X88.148Y-87.042
X88.148Y-89.582
X88.148Y-92.122
X88.148Y-94.662
X88.148Y-97.202
X88.148Y-99.742
X88.148Y-102.282
X88.148Y-104.822
X88.148Y-107.362
X88.148Y-109.902
X88.148Y-112.442
X93.298Y-142.748
X95.768Y-79.422
X95.768Y-81.962
X95.768Y-84.502
X95.768Y-87.042
X95.768Y-89.582
X95.768Y-92.122
X95.768Y-94.662
X95.768Y-97.202
X95.768Y-99.742
X95.768Y-102.282
X95.768Y-104.822
X95.768Y-107.362
X95.768Y-109.902
X95.768Y-112.442
X98.298Y-142.748
X122.174Y-131.866
X122.174Y-136.866
X122.428Y-103.926
X122.428Y-108.926
X122.682Y-81.574
X122.682Y-86.574
T5
X165.608Y-122.841
X165.608Y-125.381
X165.862Y-96.171
X165.862Y-98.711
X166.116Y-150.273
X166.116Y-152.813
T6
X54.374Y-67.871
X56.914Y-67.871
X59.454Y-67.871
X61.994Y-67.871
X64.534Y-67.871
X67.074Y-67.871
X69.614Y-67.871
X72.154Y-67.871
X74.694Y-67.871
X77.234Y-67.871
X79.774Y-67.871
X82.314Y-67.871
X84.854Y-67.871
X87.394Y-67.871
X89.934Y-67.871
X92.474Y-67.871
X162.894Y-38.871
X162.894Y-42.871
X162.894Y-49.871
X162.894Y-53.871
T7
X52.324Y-127.418
X52.324Y-137.578
X52.472Y-107.098
X52.472Y-117.258
X53.742Y-146.468
X53.742Y-156.628
X86.106Y-132.334
X88.646Y-132.334
X91.186Y-132.334
X111.323Y-108.458
X111.323Y-110.998
X111.323Y-113.538
X111.323Y-136.144
X111.323Y-138.684
X111.323Y-141.224
X111.577Y-83.566
X111.577Y-86.106
X111.577Y-88.646
X145.542Y-80.682
X145.542Y-86.27
X145.542Y-135.038
X145.542Y-141.134
X146.05Y-107.098
X146.05Y-112.178
X155.702Y-80.682
X155.702Y-86.27
X155.702Y-135.038
X155.702Y-141.134
X156.21Y-107.098
X156.21Y-112.178
T8
X33.782Y-46.9
X33.782Y-51.9
X33.782Y-56.9
T9
X31.442Y-126.244
X31.442Y-138.244
X31.59Y-105.67
X31.59Y-117.67
X32.352Y-145.802
X32.352Y-157.802
X34.244Y-76.867
X34.244Y-81.947
X43.642Y-126.244
X43.642Y-138.244
X43.79Y-105.67
X43.79Y-117.67
X44.552Y-145.802
X44.552Y-157.802
X45.642Y-132.244
X45.79Y-111.67
X46.552Y-151.802
X103.124Y-161.246
X108.204Y-161.246
X113.284Y-161.246
X118.364Y-161.246
X165.862Y-80.682
X165.862Y-85.762
X165.862Y-90.842
X165.862Y-107.352
X165.862Y-112.432
X165.862Y-117.512
X166.116Y-135.546
X166.116Y-140.626
X166.116Y-145.706
T0
M30
